<svg width="600" height="400" viewBox="0 0 600 400" fill="none" xmlns="http://www.w3.org/2000/svg">
  <!-- Fondo con gradiente sutil -->
  <rect width="600" height="400" rx="20" fill="url(#paint0_linear)" fill-opacity="0.1"/>
  
  <!-- Laptop base -->
  <rect x="150" y="180" width="300" height="180" rx="10" fill="#2A7C60" stroke="#8BE0C9" stroke-width="2"/>
  <rect x="170" y="200" width="260" height="140" rx="5" fill="#1B5E4F"/>
  
  <!-- Pantalla de laptop -->
  <rect x="200" y="100" width="200" height="140" rx="5" fill="#F5F5F5" stroke="#8BE0C9" stroke-width="2"/>
  <rect x="210" y="110" width="180" height="120" rx="2" fill="#FFFFFF"/>
  
  <!-- Elementos en la pantalla -->
  <rect x="220" y="120" width="100" height="10" rx="2" fill="#E0E0E0"/>
  <rect x="220" y="140" width="160" height="10" rx="2" fill="#E0E0E0"/>
  <rect x="220" y="160" width="80" height="10" rx="2" fill="#E0E0E0"/>
  <rect x="220" y="180" width="120" height="10" rx="2" fill="#E0E0E0"/>
  <rect x="220" y="200" width="40" height="20" rx="4" fill="#2A7C60"/>
  
  <!-- Engranajes animados -->
  <g class="gear-animation-1">
    <path d="M400 70C400 75.5228 395.523 80 390 80C384.477 80 380 75.5228 380 70C380 64.4772 384.477 60 390 60C395.523 60 400 64.4772 400 70Z" fill="#8BE0C9"/>
    <path d="M390 50V55M390 85V90M410 70H405M375 70H370M404.142 56.1421L400.607 59.6777M379.393 80.3223L375.858 83.8579M404.142 83.8579L400.607 80.3223M379.393 59.6777L375.858 56.1421" stroke="#8BE0C9" stroke-width="3" stroke-linecap="round"/>
  </g>
  
  <g class="gear-animation-2">
    <path d="M450 120C450 125.523 445.523 130 440 130C434.477 130 430 125.523 430 120C430 114.477 434.477 110 440 110C445.523 110 450 114.477 450 120Z" fill="#8BE0C9"/>
    <path d="M440 100V105M440 135V140M460 120H455M425 120H420M454.142 106.142L450.607 109.678M429.393 130.322L425.858 133.858M454.142 133.858L450.607 130.322M429.393 109.678L425.858 106.142" stroke="#8BE0C9" stroke-width="3" stroke-linecap="round"/>
  </g>
  
  <!-- Iconos de automatización -->
  <g class="automation-icon-1">
    <rect x="120" y="90" width="40" height="40" rx="8" fill="#2A7C60" fill-opacity="0.7"/>
    <path d="M135 105V115M145 105V115M135 115H145M135 115C135 120 140 120 140 115C140 120 145 120 145 115" stroke="white" stroke-width="2" stroke-linecap="round"/>
  </g>
  
  <g class="automation-icon-2">
    <rect x="460" y="200" width="40" height="40" rx="8" fill="#2A7C60" fill-opacity="0.7"/>
    <path d="M475 210L485 230M475 230L485 210M470 220H490" stroke="white" stroke-width="2" stroke-linecap="round"/>
  </g>
  
  <g class="automation-icon-3">
    <rect x="100" y="200" width="40" height="40" rx="8" fill="#2A7C60" fill-opacity="0.7"/>
    <path d="M110 220H130M120 210V230" stroke="white" stroke-width="2" stroke-linecap="round"/>
  </g>
  
  <!-- Líneas conectoras -->
  <path d="M160 110L200 110" stroke="#8BE0C9" stroke-width="2" stroke-dasharray="4 4" class="connecting-line-1"/>
  <path d="M460 220L410 220" stroke="#8BE0C9" stroke-width="2" stroke-dasharray="4 4" class="connecting-line-2"/>
  <path d="M140 200L200 150" stroke="#8BE0C9" stroke-width="2" stroke-dasharray="4 4" class="connecting-line-3"/>
  
  <!-- Partículas flotantes -->
  <circle cx="180" y="150" r="5" fill="#8BE0C9" class="particle-1"/>
  <circle cx="420" y="180" r="3" fill="#8BE0C9" class="particle-2"/>
  <circle cx="350" y="80" r="4" fill="#8BE0C9" class="particle-3"/>
  <circle cx="150" y="250" r="3" fill="#8BE0C9" class="particle-4"/>
  
  <!-- Definiciones de gradientes y animaciones -->
  <defs>
    <linearGradient id="paint0_linear" x1="0" y1="0" x2="600" y2="400" gradientUnits="userSpaceOnUse">
      <stop stop-color="#8BE0C9"/>
      <stop offset="1" stop-color="#2A7C60"/>
    </linearGradient>
    
    <style>
      .gear-animation-1 {
        transform-origin: 390px 70px;
        animation: rotate 10s linear infinite;
      }
      .gear-animation-2 {
        transform-origin: 440px 120px;
        animation: rotate-reverse 8s linear infinite;
      }
      .connecting-line-1, .connecting-line-2, .connecting-line-3 {
        stroke-dashoffset: 0;
        animation: dash 3s linear infinite;
      }
      .particle-1 {
        animation: float 4s ease-in-out infinite;
      }
      .particle-2 {
        animation: float 6s ease-in-out infinite;
        animation-delay: 1s;
      }
      .particle-3 {
        animation: float 5s ease-in-out infinite;
        animation-delay: 2s;
      }
      .particle-4 {
        animation: float 7s ease-in-out infinite;
        animation-delay: 3s;
      }
      .automation-icon-1, .automation-icon-2, .automation-icon-3 {
        animation: pulse 3s ease-in-out infinite;
      }
      
      @keyframes rotate {
        from { transform: rotate(0deg); }
        to { transform: rotate(360deg); }
      }
      @keyframes rotate-reverse {
        from { transform: rotate(0deg); }
        to { transform: rotate(-360deg); }
      }
      @keyframes dash {
        to { stroke-dashoffset: 16; }
      }
      @keyframes float {
        0%, 100% { transform: translateY(0); }
        50% { transform: translateY(-10px); }
      }
      @keyframes pulse {
        0%, 100% { opacity: 0.7; }
        50% { opacity: 1; }
      }
    </style>
  </defs>
</svg> 